<mxfile host="app.diagrams.net" modified="2020-12-08T12:24:16.565Z" agent="5.0 (Windows)" etag="0msUwhGgGGrC1uDNMR8d" version="13.10.9" type="github">
  <diagram id="H5tP--HuBoYc2pUV23iE" name="Page-1">
    <mxGraphModel dx="1038" dy="575" grid="1" gridSize="10" guides="1" tooltips="1" connect="1" arrows="1" fold="1" page="1" pageScale="1" pageWidth="827" pageHeight="1169" math="0" shadow="0">
      <root>
        <mxCell id="0" />
        <mxCell id="1" parent="0" />
        <mxCell id="H2kfqMS4qZ6sZp51IyBR-1" value="Université" style="swimlane;fontStyle=1;align=center;verticalAlign=top;childLayout=stackLayout;horizontal=1;startSize=26;horizontalStack=0;resizeParent=1;resizeParentMax=0;resizeLast=0;collapsible=1;marginBottom=0;fontSize=12;" vertex="1" parent="1">
          <mxGeometry x="40" y="80" width="160" height="86" as="geometry" />
        </mxCell>
        <mxCell id="H2kfqMS4qZ6sZp51IyBR-2" value="+ field: type" style="text;strokeColor=none;fillColor=none;align=left;verticalAlign=top;spacingLeft=4;spacingRight=4;overflow=hidden;rotatable=0;points=[[0,0.5],[1,0.5]];portConstraint=eastwest;" vertex="1" parent="H2kfqMS4qZ6sZp51IyBR-1">
          <mxGeometry y="26" width="160" height="26" as="geometry" />
        </mxCell>
        <mxCell id="H2kfqMS4qZ6sZp51IyBR-3" value="" style="line;strokeWidth=1;fillColor=none;align=left;verticalAlign=middle;spacingTop=-1;spacingLeft=3;spacingRight=3;rotatable=0;labelPosition=right;points=[];portConstraint=eastwest;" vertex="1" parent="H2kfqMS4qZ6sZp51IyBR-1">
          <mxGeometry y="52" width="160" height="8" as="geometry" />
        </mxCell>
        <mxCell id="H2kfqMS4qZ6sZp51IyBR-4" value="+ method(type): type" style="text;strokeColor=none;fillColor=none;align=left;verticalAlign=top;spacingLeft=4;spacingRight=4;overflow=hidden;rotatable=0;points=[[0,0.5],[1,0.5]];portConstraint=eastwest;" vertex="1" parent="H2kfqMS4qZ6sZp51IyBR-1">
          <mxGeometry y="60" width="160" height="26" as="geometry" />
        </mxCell>
        <mxCell id="H2kfqMS4qZ6sZp51IyBR-6" value="Personnes" style="swimlane;fontStyle=1;align=center;verticalAlign=top;childLayout=stackLayout;horizontal=1;startSize=26;horizontalStack=0;resizeParent=1;resizeParentMax=0;resizeLast=0;collapsible=1;marginBottom=0;fontSize=12;" vertex="1" parent="1">
          <mxGeometry x="320" y="80" width="160" height="86" as="geometry" />
        </mxCell>
        <mxCell id="H2kfqMS4qZ6sZp51IyBR-7" value="+ field: type" style="text;strokeColor=none;fillColor=none;align=left;verticalAlign=top;spacingLeft=4;spacingRight=4;overflow=hidden;rotatable=0;points=[[0,0.5],[1,0.5]];portConstraint=eastwest;" vertex="1" parent="H2kfqMS4qZ6sZp51IyBR-6">
          <mxGeometry y="26" width="160" height="26" as="geometry" />
        </mxCell>
        <mxCell id="H2kfqMS4qZ6sZp51IyBR-8" value="" style="line;strokeWidth=1;fillColor=none;align=left;verticalAlign=middle;spacingTop=-1;spacingLeft=3;spacingRight=3;rotatable=0;labelPosition=right;points=[];portConstraint=eastwest;" vertex="1" parent="H2kfqMS4qZ6sZp51IyBR-6">
          <mxGeometry y="52" width="160" height="8" as="geometry" />
        </mxCell>
        <mxCell id="H2kfqMS4qZ6sZp51IyBR-9" value="+ method(type): type" style="text;strokeColor=none;fillColor=none;align=left;verticalAlign=top;spacingLeft=4;spacingRight=4;overflow=hidden;rotatable=0;points=[[0,0.5],[1,0.5]];portConstraint=eastwest;" vertex="1" parent="H2kfqMS4qZ6sZp51IyBR-6">
          <mxGeometry y="60" width="160" height="26" as="geometry" />
        </mxCell>
        <mxCell id="H2kfqMS4qZ6sZp51IyBR-11" value="Etudiant" style="swimlane;fontStyle=1;align=center;verticalAlign=top;childLayout=stackLayout;horizontal=1;startSize=26;horizontalStack=0;resizeParent=1;resizeParentMax=0;resizeLast=0;collapsible=1;marginBottom=0;fontSize=12;" vertex="1" parent="1">
          <mxGeometry x="200" y="240" width="160" height="86" as="geometry" />
        </mxCell>
        <mxCell id="H2kfqMS4qZ6sZp51IyBR-12" value="+ field: type" style="text;strokeColor=none;fillColor=none;align=left;verticalAlign=top;spacingLeft=4;spacingRight=4;overflow=hidden;rotatable=0;points=[[0,0.5],[1,0.5]];portConstraint=eastwest;" vertex="1" parent="H2kfqMS4qZ6sZp51IyBR-11">
          <mxGeometry y="26" width="160" height="26" as="geometry" />
        </mxCell>
        <mxCell id="H2kfqMS4qZ6sZp51IyBR-13" value="" style="line;strokeWidth=1;fillColor=none;align=left;verticalAlign=middle;spacingTop=-1;spacingLeft=3;spacingRight=3;rotatable=0;labelPosition=right;points=[];portConstraint=eastwest;" vertex="1" parent="H2kfqMS4qZ6sZp51IyBR-11">
          <mxGeometry y="52" width="160" height="8" as="geometry" />
        </mxCell>
        <mxCell id="H2kfqMS4qZ6sZp51IyBR-14" value="+ method(type): type" style="text;strokeColor=none;fillColor=none;align=left;verticalAlign=top;spacingLeft=4;spacingRight=4;overflow=hidden;rotatable=0;points=[[0,0.5],[1,0.5]];portConstraint=eastwest;" vertex="1" parent="H2kfqMS4qZ6sZp51IyBR-11">
          <mxGeometry y="60" width="160" height="26" as="geometry" />
        </mxCell>
        <mxCell id="H2kfqMS4qZ6sZp51IyBR-16" value="Professeur" style="swimlane;fontStyle=1;align=center;verticalAlign=top;childLayout=stackLayout;horizontal=1;startSize=26;horizontalStack=0;resizeParent=1;resizeParentMax=0;resizeLast=0;collapsible=1;marginBottom=0;fontSize=12;" vertex="1" parent="1">
          <mxGeometry x="440" y="240" width="160" height="86" as="geometry" />
        </mxCell>
        <mxCell id="H2kfqMS4qZ6sZp51IyBR-17" value="+ field: type" style="text;strokeColor=none;fillColor=none;align=left;verticalAlign=top;spacingLeft=4;spacingRight=4;overflow=hidden;rotatable=0;points=[[0,0.5],[1,0.5]];portConstraint=eastwest;" vertex="1" parent="H2kfqMS4qZ6sZp51IyBR-16">
          <mxGeometry y="26" width="160" height="26" as="geometry" />
        </mxCell>
        <mxCell id="H2kfqMS4qZ6sZp51IyBR-18" value="" style="line;strokeWidth=1;fillColor=none;align=left;verticalAlign=middle;spacingTop=-1;spacingLeft=3;spacingRight=3;rotatable=0;labelPosition=right;points=[];portConstraint=eastwest;" vertex="1" parent="H2kfqMS4qZ6sZp51IyBR-16">
          <mxGeometry y="52" width="160" height="8" as="geometry" />
        </mxCell>
        <mxCell id="H2kfqMS4qZ6sZp51IyBR-19" value="+ method(type): type" style="text;strokeColor=none;fillColor=none;align=left;verticalAlign=top;spacingLeft=4;spacingRight=4;overflow=hidden;rotatable=0;points=[[0,0.5],[1,0.5]];portConstraint=eastwest;" vertex="1" parent="H2kfqMS4qZ6sZp51IyBR-16">
          <mxGeometry y="60" width="160" height="26" as="geometry" />
        </mxCell>
        <mxCell id="H2kfqMS4qZ6sZp51IyBR-21" value="" style="endArrow=block;endFill=0;endSize=12;html=1;fontSize=12;exitX=0.5;exitY=0;exitDx=0;exitDy=0;entryX=0.463;entryY=1.038;entryDx=0;entryDy=0;entryPerimeter=0;" edge="1" parent="1" source="H2kfqMS4qZ6sZp51IyBR-11" target="H2kfqMS4qZ6sZp51IyBR-9">
          <mxGeometry width="160" relative="1" as="geometry">
            <mxPoint x="330" y="270" as="sourcePoint" />
            <mxPoint x="395" y="180" as="targetPoint" />
          </mxGeometry>
        </mxCell>
        <mxCell id="H2kfqMS4qZ6sZp51IyBR-23" value="" style="endArrow=block;endFill=0;endSize=12;html=1;fontSize=12;exitX=0.5;exitY=0;exitDx=0;exitDy=0;entryX=0.469;entryY=0.962;entryDx=0;entryDy=0;entryPerimeter=0;" edge="1" parent="1" source="H2kfqMS4qZ6sZp51IyBR-16" target="H2kfqMS4qZ6sZp51IyBR-9">
          <mxGeometry width="160" relative="1" as="geometry">
            <mxPoint x="480" y="220" as="sourcePoint" />
            <mxPoint x="594.0799999999999" y="150.00400000000002" as="targetPoint" />
          </mxGeometry>
        </mxCell>
        <mxCell id="H2kfqMS4qZ6sZp51IyBR-27" value="possède" style="endArrow=open;html=1;endSize=12;startArrow=diamondThin;startSize=14;startFill=0;edgeStyle=orthogonalEdgeStyle;fontSize=12;exitX=1.013;exitY=-0.192;exitDx=0;exitDy=0;exitPerimeter=0;entryX=-0.006;entryY=0.375;entryDx=0;entryDy=0;entryPerimeter=0;" edge="1" parent="1" source="H2kfqMS4qZ6sZp51IyBR-4" target="H2kfqMS4qZ6sZp51IyBR-8">
          <mxGeometry relative="1" as="geometry">
            <mxPoint x="230" y="122.5" as="sourcePoint" />
            <mxPoint x="390" y="122.5" as="targetPoint" />
          </mxGeometry>
        </mxCell>
        <mxCell id="H2kfqMS4qZ6sZp51IyBR-28" value="0.1" style="edgeLabel;resizable=0;html=1;align=left;verticalAlign=top;" connectable="0" vertex="1" parent="H2kfqMS4qZ6sZp51IyBR-27">
          <mxGeometry x="-1" relative="1" as="geometry" />
        </mxCell>
        <mxCell id="H2kfqMS4qZ6sZp51IyBR-29" value="0.x" style="edgeLabel;resizable=0;html=1;align=right;verticalAlign=top;" connectable="0" vertex="1" parent="H2kfqMS4qZ6sZp51IyBR-27">
          <mxGeometry x="1" relative="1" as="geometry" />
        </mxCell>
      </root>
    </mxGraphModel>
  </diagram>
</mxfile>
